<svg width="285" height="266" viewBox="0 0 285 266" fill="none" xmlns="http://www.w3.org/2000/svg">
<path fill-rule="evenodd" clip-rule="evenodd" d="M37.5712 230.933H0V266H37.5712V230.933ZM284.999 230.933H247.428V266H284.999V230.933ZM108.822 251.238H114.76C116.399 251.238 117.729 249.996 117.729 248.467C117.729 246.937 116.399 245.696 114.76 245.696H108.822C107.184 245.696 105.854 246.937 105.854 248.467C105.854 249.996 107.184 251.238 108.822 251.238ZM126.635 251.238H132.572C134.211 251.238 135.541 249.996 135.541 248.467C135.541 246.937 134.211 245.696 132.572 245.696H126.635C124.996 245.696 123.666 246.937 123.666 248.467C123.666 249.996 124.996 251.238 126.635 251.238ZM144.447 251.238H150.385C152.024 251.238 153.354 249.996 153.354 248.467C153.354 246.937 152.024 245.696 150.385 245.696H144.447C142.809 245.696 141.479 246.937 141.479 248.467C141.479 249.996 142.809 251.238 144.447 251.238ZM162.26 251.238H168.197C169.836 251.238 171.166 249.996 171.166 248.467C171.166 246.937 169.836 245.696 168.197 245.696H162.26C160.621 245.696 159.291 246.937 159.291 248.467C159.291 249.996 160.621 251.238 162.26 251.238ZM180.072 251.238H186.01C187.649 251.238 188.979 249.996 188.979 248.467C188.979 246.937 187.649 245.696 186.01 245.696H180.072C178.434 245.696 177.104 246.937 177.104 248.467C177.104 249.996 178.434 251.238 180.072 251.238ZM197.885 251.238H203.822C205.461 251.238 206.791 249.996 206.791 248.467C206.791 246.937 205.461 245.696 203.822 245.696H197.885C196.246 245.696 194.916 246.937 194.916 248.467C194.916 249.996 196.246 251.238 197.885 251.238ZM41.1371 245.696V251.238H43.5121C45.1508 251.238 46.4808 249.996 46.4808 248.467C46.4808 246.937 45.1508 245.696 43.5121 245.696L41.1371 245.696ZM215.699 251.238H221.637C223.275 251.238 224.605 249.996 224.605 248.467C224.605 246.937 223.275 245.696 221.637 245.696H215.699C214.061 245.696 212.731 246.937 212.731 248.467C212.731 249.996 214.061 251.238 215.699 251.238ZM73.1998 251.238H79.1372C80.776 251.238 82.106 249.996 82.106 248.467C82.106 246.937 80.776 245.696 79.1372 245.696H73.1998C71.5611 245.696 70.2311 246.937 70.2311 248.467C70.2311 249.996 71.5611 251.238 73.1998 251.238ZM91.0124 251.238H96.9497C98.5885 251.238 99.9185 249.996 99.9185 248.467C99.9185 246.937 98.5885 245.696 96.9497 245.696H91.0124C89.3736 245.696 88.0436 246.937 88.0436 248.467C88.0436 249.996 89.3736 251.238 91.0124 251.238ZM233.512 251.238H239.449C241.088 251.238 242.418 249.996 242.418 248.467C242.418 246.937 241.088 245.696 239.449 245.696H233.512C231.873 245.696 230.543 246.937 230.543 248.467C230.543 249.996 231.873 251.238 233.512 251.238ZM55.3867 251.238H61.3241C62.9629 251.238 64.2929 249.996 64.2929 248.467C64.2929 246.937 62.9629 245.696 61.3241 245.696H55.3867C53.748 245.696 52.418 246.937 52.418 248.467C52.418 249.996 53.748 251.238 55.3867 251.238ZM263.246 227.608H269.183V225.391C269.183 223.862 267.853 222.621 266.215 222.621C264.576 222.621 263.246 223.862 263.246 225.391L263.246 227.608ZM15.8183 217.943V223.485C15.8183 225.015 17.1483 226.256 18.787 226.256C20.4257 226.256 21.7557 225.015 21.7557 223.485V217.943C21.7557 216.414 20.4257 215.173 18.787 215.173C17.1483 215.173 15.8183 216.414 15.8183 217.943ZM269.183 214.308V208.767C269.183 207.237 267.853 205.996 266.214 205.996C264.575 205.996 263.245 207.237 263.245 208.767V214.308C263.245 215.838 264.575 217.079 266.214 217.079C267.853 217.079 269.183 215.838 269.183 214.308ZM15.8183 201.318V206.86C15.8183 208.39 17.1483 209.631 18.787 209.631C20.4257 209.631 21.7557 208.39 21.7557 206.86V201.318C21.7557 199.789 20.4257 198.548 18.787 198.548C17.1483 198.548 15.8183 199.789 15.8183 201.318ZM269.183 197.683V192.141C269.183 190.612 267.853 189.371 266.214 189.371C264.575 189.371 263.245 190.612 263.245 192.141V197.683C263.245 199.213 264.575 200.454 266.214 200.454C267.853 200.454 269.183 199.213 269.183 197.683ZM15.8183 184.693V190.235C15.8183 191.765 17.1483 193.006 18.787 193.006C20.4257 193.006 21.7557 191.765 21.7557 190.235V184.693C21.7557 183.164 20.4257 181.923 18.787 181.923C17.1483 181.923 15.8183 183.164 15.8183 184.693ZM269.183 181.058V175.516C269.183 173.987 267.853 172.746 266.214 172.746C264.575 172.746 263.245 173.987 263.245 175.516V181.058C263.245 182.588 264.575 183.829 266.214 183.829C267.853 183.829 269.183 182.588 269.183 181.058ZM15.8183 168.069V173.61C15.8183 175.14 17.1483 176.381 18.787 176.381C20.4257 176.381 21.7557 175.14 21.7557 173.61V168.069C21.7557 166.539 20.4257 165.298 18.787 165.298C17.1483 165.298 15.8183 166.539 15.8183 168.069ZM269.183 164.434V158.892C269.183 157.363 267.853 156.121 266.214 156.121C264.575 156.121 263.245 157.363 263.245 158.892V164.434C263.245 165.963 264.575 167.205 266.214 167.205C267.853 167.205 269.183 165.963 269.183 164.434ZM15.8183 151.442V156.983C15.8183 158.513 17.1483 159.754 18.787 159.754C20.4257 159.754 21.7557 158.513 21.7557 156.983V151.442C21.7557 149.912 20.4257 148.671 18.787 148.671C17.1483 148.671 15.8183 149.912 15.8183 151.442ZM269.183 147.806V142.265C269.183 140.735 267.853 139.494 266.214 139.494C264.575 139.494 263.245 140.735 263.245 142.265V147.806C263.245 149.336 264.575 150.577 266.214 150.577C267.853 150.577 269.183 149.336 269.183 147.806ZM15.8183 134.817V140.359C15.8183 141.889 17.1483 143.13 18.787 143.13C20.4257 143.13 21.7557 141.889 21.7557 140.359V134.817C21.7557 133.288 20.4257 132.047 18.787 132.047C17.1483 132.047 15.8183 133.288 15.8183 134.817ZM269.183 131.182V125.641C269.183 124.111 267.853 122.87 266.214 122.87C264.575 122.87 263.245 124.111 263.245 125.641V131.182C263.245 132.712 264.575 133.953 266.214 133.953C267.853 133.953 269.183 132.712 269.183 131.182ZM15.8183 118.192V123.734C15.8183 125.264 17.1483 126.505 18.787 126.505C20.4257 126.505 21.7557 125.264 21.7557 123.734V118.192C21.7557 116.663 20.4257 115.422 18.787 115.422C17.1483 115.422 15.8183 116.663 15.8183 118.192ZM269.183 114.557V109.016C269.183 107.486 267.853 106.245 266.214 106.245C264.575 106.245 263.245 107.486 263.245 109.016V114.557C263.245 116.087 264.575 117.328 266.214 117.328C267.853 117.328 269.183 116.087 269.183 114.557ZM15.8183 101.567V107.109C15.8183 108.639 17.1483 109.88 18.787 109.88C20.4257 109.88 21.7557 108.639 21.7557 107.109V101.567C21.7557 100.038 20.4257 98.7966 18.787 98.7966C17.1483 98.7966 15.8183 100.038 15.8183 101.567ZM269.183 97.9322V92.3905C269.183 90.861 267.853 89.6197 266.214 89.6197C264.575 89.6197 263.245 90.861 263.245 92.3905V97.9322C263.245 99.4617 264.575 100.703 266.214 100.703C267.853 100.703 269.183 99.4617 269.183 97.9322ZM15.8183 84.9424V90.4841C15.8183 92.0136 17.1483 93.255 18.787 93.255C20.4257 93.255 21.7557 92.0136 21.7557 90.4841V84.9424C21.7557 83.4129 20.4257 82.1716 18.787 82.1716C17.1483 82.1716 15.8183 83.4129 15.8183 84.9424ZM269.183 81.3072V75.7655C269.183 74.236 267.853 72.9946 266.214 72.9946C264.575 72.9946 263.245 74.236 263.245 75.7655V81.3072C263.245 82.8367 264.575 84.078 266.214 84.078C267.853 84.078 269.183 82.8367 269.183 81.3072ZM15.8183 68.3174V73.8591C15.8183 75.3886 17.1483 76.6299 18.787 76.6299C20.4257 76.6299 21.7557 75.3886 21.7557 73.8591V68.3174C21.7557 66.7879 20.4257 65.5465 18.787 65.5465C17.1483 65.5465 15.8183 66.7879 15.8183 68.3174ZM269.183 64.6822V59.1405C269.183 57.611 267.853 56.3696 266.214 56.3696C264.575 56.3696 263.245 57.611 263.245 59.1405V64.6822C263.245 66.2117 264.575 67.453 266.214 67.453C267.853 67.453 269.183 66.2117 269.183 64.6822ZM15.8183 51.6924V57.2341C15.8183 58.7636 17.1483 60.0049 18.787 60.0049C20.4257 60.0049 21.7557 58.7636 21.7557 57.2341V51.6924C21.7557 50.1629 20.4257 48.9215 18.787 48.9215C17.1483 48.9215 15.8183 50.1629 15.8183 51.6924ZM269.183 48.0571V42.5155C269.183 40.986 267.853 39.7446 266.214 39.7446C264.575 39.7446 263.245 40.986 263.245 42.5155V48.0571C263.245 49.5867 264.575 50.828 266.214 50.828C267.853 50.828 269.183 49.5867 269.183 48.0571ZM21.7554 38.3925H15.818V40.6092C15.818 42.1387 17.148 43.3801 18.7867 43.3801C20.4254 43.3801 21.7554 42.1387 21.7554 40.6092L21.7554 38.3925ZM285 0H247.429V35.0671H285V0ZM37.5724 0H0.0012162V35.0671H37.5724V0ZM51.4898 14.7631H45.5524C43.9136 14.7631 42.5837 16.0045 42.5837 17.534C42.5837 19.0635 43.9136 20.3049 45.5524 20.3049H51.4898C53.1285 20.3049 54.4585 19.0635 54.4585 17.534C54.4585 16.0045 53.1285 14.7631 51.4898 14.7631ZM158.364 14.7631H152.426C150.787 14.7631 149.457 16.0045 149.457 17.534C149.457 19.0635 150.787 20.3049 152.426 20.3049H158.364C160.002 20.3049 161.332 19.0635 161.332 17.534C161.332 16.0045 160.002 14.7631 158.364 14.7631ZM193.989 14.7631H188.052C186.413 14.7631 185.083 16.0045 185.083 17.534C185.083 19.0635 186.413 20.3049 188.052 20.3049H193.989C195.628 20.3049 196.958 19.0635 196.958 17.534C196.958 16.0045 195.628 14.7631 193.989 14.7631ZM211.802 14.7631H205.864C204.226 14.7631 202.896 16.0045 202.896 17.534C202.896 19.0635 204.226 20.3049 205.864 20.3049H211.802C213.44 20.3049 214.77 19.0635 214.77 17.534C214.77 16.0045 213.44 14.7631 211.802 14.7631ZM243.864 14.7631H241.489C239.851 14.7631 238.521 16.0045 238.521 17.534C238.521 19.0635 239.851 20.3049 241.489 20.3049H243.864V14.7631ZM69.3023 14.7631H63.3649C61.7261 14.7631 60.3962 16.0045 60.3962 17.534C60.3962 19.0635 61.7261 20.3049 63.3649 20.3049H69.3023C70.941 20.3049 72.271 19.0635 72.271 17.534C72.271 16.0045 70.941 14.7631 69.3023 14.7631ZM87.1148 14.7631H81.1774C79.5386 14.7631 78.2087 16.0045 78.2087 17.534C78.2087 19.0635 79.5386 20.3049 81.1774 20.3049H87.1148C88.7535 20.3049 90.0835 19.0635 90.0835 17.534C90.0835 16.0045 88.7535 14.7631 87.1148 14.7631ZM104.927 14.7631H98.9899C97.3511 14.7631 96.0212 16.0045 96.0212 17.534C96.0212 19.0635 97.3511 20.3049 98.9899 20.3049H104.927C106.566 20.3049 107.896 19.0635 107.896 17.534C107.896 16.0045 106.566 14.7631 104.927 14.7631ZM122.74 14.7631H116.802C115.164 14.7631 113.834 16.0045 113.834 17.534C113.834 19.0635 115.164 20.3049 116.802 20.3049H122.74C124.379 20.3049 125.709 19.0635 125.709 17.534C125.709 16.0045 124.379 14.7631 122.74 14.7631ZM140.552 14.7631H134.615C132.976 14.7631 131.646 16.0045 131.646 17.534C131.646 19.0635 132.976 20.3049 134.615 20.3049H140.552C142.191 20.3049 143.521 19.0635 143.521 17.534C143.521 16.0045 142.191 14.7631 140.552 14.7631ZM229.615 14.7631H223.677C222.039 14.7631 220.709 16.0045 220.709 17.534C220.709 19.0635 222.039 20.3049 223.677 20.3049H229.615C231.254 20.3049 232.584 19.0635 232.584 17.534C232.584 16.0045 231.254 14.7631 229.615 14.7631ZM176.178 14.7631H170.24C168.602 14.7631 167.272 16.0045 167.272 17.534C167.272 19.0635 168.602 20.3049 170.24 20.3049H176.178C177.817 20.3049 179.147 19.0635 179.147 17.534C179.147 16.0045 177.817 14.7631 176.178 14.7631Z" fill="#A9A9A9"/>
</svg>
