<svg width="58" height="19" viewBox="0 0 58 19" fill="none" xmlns="http://www.w3.org/2000/svg">
<path d="M0.490531 18V15.624H2.14653C2.91453 15.624 3.49853 15.416 3.89853 15C4.29853 14.584 4.50653 13.976 4.52253 13.176L4.59453 3.576V1.2H7.04253V13.416C7.04253 14.296 6.84253 15.088 6.44253 15.792C6.04253 16.48 5.48253 17.024 4.76253 17.424C4.05853 17.808 3.26653 18 2.38653 18H0.490531ZM10.9356 18V1.2H20.1996C20.5516 1.2 20.8396 1.312 21.0636 1.536C21.2876 1.76 21.3996 2.04 21.3996 2.376C21.3996 2.728 21.2876 3.016 21.0636 3.24C20.8396 3.464 20.5516 3.576 20.1996 3.576H14.7276C14.3436 3.576 14.0236 3.704 13.7676 3.96C13.5276 4.2 13.4076 4.512 13.4076 4.896V6.96C13.4076 7.344 13.5276 7.664 13.7676 7.92C14.0236 8.16 14.3436 8.28 14.7276 8.28H18.7836C19.1196 8.28 19.3996 8.392 19.6236 8.616C19.8476 8.84 19.9596 9.128 19.9596 9.48C19.9596 9.816 19.8476 10.096 19.6236 10.32C19.3996 10.544 19.1196 10.656 18.7836 10.656H14.7756C14.3756 10.656 14.0476 10.792 13.7916 11.064C13.5356 11.32 13.4076 11.648 13.4076 12.048V14.232C13.4076 14.632 13.5356 14.968 13.7916 15.24C14.0476 15.496 14.3756 15.624 14.7756 15.624H20.1996C20.5516 15.624 20.8396 15.736 21.0636 15.96C21.2876 16.184 21.3996 16.464 21.3996 16.8C21.3996 17.152 21.2876 17.44 21.0636 17.664C20.8396 17.888 20.5516 18 20.1996 18H10.9356ZM35.2435 18.24C34.3955 18.24 33.6275 18.048 32.9395 17.664C32.2515 17.264 31.7075 16.728 31.3075 16.056C30.9235 15.384 30.7315 14.632 30.7315 13.8V5.376C30.7315 4.752 30.5475 4.248 30.1795 3.864C29.8115 3.464 29.3395 3.264 28.7635 3.264C28.1875 3.264 27.7075 3.464 27.3235 3.864C26.9555 4.248 26.7715 4.752 26.7715 5.376V18H24.2515V5.496C24.2515 4.632 24.4435 3.856 24.8275 3.168C25.2275 2.48 25.7715 1.944 26.4595 1.56C27.1475 1.16 27.9155 0.959999 28.7635 0.959999C29.6115 0.959999 30.3715 1.16 31.0435 1.56C31.7315 1.944 32.2675 2.48 32.6515 3.168C33.0515 3.856 33.2515 4.632 33.2515 5.496V13.92C33.2515 14.528 33.4355 15.016 33.8035 15.384C34.1715 15.736 34.6515 15.912 35.2435 15.912C35.8195 15.912 36.2915 15.736 36.6595 15.384C37.0275 15.016 37.2115 14.528 37.2115 13.92V1.2H39.7315V13.8C39.7315 14.632 39.5315 15.384 39.1315 16.056C38.7475 16.728 38.2115 17.264 37.5235 17.664C36.8515 18.048 36.0915 18.24 35.2435 18.24ZM49.8587 18.24C49.3787 18.24 48.9707 18.096 48.6347 17.808C48.3147 17.52 48.0267 17.056 47.7707 16.416L41.8907 1.2H44.6987L50.2907 15.912H49.5227L55.1147 1.2H57.8267L51.9467 16.416C51.6907 17.056 51.3947 17.52 51.0587 17.808C50.7387 18.096 50.3387 18.24 49.8587 18.24Z" fill="white"/>
</svg>
